# xmcd CD database file
#
# Track frame offsets:
#	150
#	28561
#	40603
#	51701
#	68280
#	82622
#	96092
#	110487
#	125659
#	149022
#	158884
#	179317
#	189188
#	201721
#	217417
#	232189
#	250214
#
# Disc length: 3504 seconds
#
# Revision: 0
# Processed by: cddbd v1.5.2PL0 Copyright (c) Steve Scherf et al.
# Submitted via: CDex 1.51
#
DISCID=fa0dae11
DTITLE=James Brown - Les 50 plus belles chansons - CD2
DYEAR=2007
DGENRE=Rhythmic Soul
TTITLE0=Get up offa that thing
TTITLE1=Ain't that a groove
TTITLE2=There must be a reason
TTITLE3=Night train
TTITLE4=By the time
TTITLE5=Think
TTITLE6=Give it up or turnit a love
TTITLE7=America is my home
TTITLE8=Brother rapp
TTITLE9=Messing with the blues
TTITLE10=Body heat
TTITLE11=Thos is old heart
TTITLE12=Money won't change you
TTITLE13=Talk to me, talk to me
TTITLE14=Down and out in New York city
TTITLE15=Funky president
TTITLE16=Waiting in vain
EXTD=YEAR: 2007
EXTT0=
EXTT1=
EXTT2=
EXTT3=
EXTT4=
EXTT5=
EXTT6=
EXTT7=
EXTT8=
EXTT9=
EXTT10=
EXTT11=
EXTT12=
EXTT13=
EXTT14=
EXTT15=
EXTT16=
PLAYORDER=
